<mxfile host="app.diagrams.net" modified="2023-01-23T17:13:19.918Z" agent="5.0 (Windows NT 10.0; Win64; x64) AppleWebKit/537.36 (KHTML, like Gecko) Chrome/108.0.0.0 Safari/537.36 OPR/94.0.0.0" etag="aac-dH88k9QxQGAf8VSJ" version="20.8.10" type="github">
  <diagram name="Página-1" id="R7nw3mn27pX-ncFZevKg">
    <mxGraphModel dx="1010" dy="581" grid="1" gridSize="10" guides="1" tooltips="1" connect="1" arrows="1" fold="1" page="1" pageScale="1" pageWidth="827" pageHeight="1169" math="0" shadow="0">
      <root>
        <mxCell id="0" />
        <mxCell id="1" parent="0" />
        <mxCell id="Ttc7ftby3Wfl5WYTJshx-1" value="&lt;div style=&quot;font-size: 10px;&quot; class=&quot;O0&quot;&gt;&lt;span style=&quot;&quot;&gt;3.1&lt;br&gt;Fortalecer el marco normativo y los instrumentos para la planificación,&amp;nbsp; diseño&amp;nbsp;y construcción de la infraestructura educativa.&lt;/span&gt;&lt;/div&gt;" style="rounded=0;whiteSpace=wrap;html=1;" vertex="1" parent="1">
          <mxGeometry x="20" y="240" width="180" height="90" as="geometry" />
        </mxCell>
        <mxCell id="Ttc7ftby3Wfl5WYTJshx-3" value="&lt;div style=&quot;font-size: 10px;&quot; class=&quot;O0&quot;&gt;&lt;span style=&quot;&quot;&gt;3.1.2&lt;br&gt;Modernizar la gestión de predios para infraestructura educativa.&lt;/span&gt;&lt;/div&gt;" style="rounded=0;whiteSpace=wrap;html=1;" vertex="1" parent="1">
          <mxGeometry x="290" y="130" width="180" height="90" as="geometry" />
        </mxCell>
        <mxCell id="Ttc7ftby3Wfl5WYTJshx-4" value="&lt;div class=&quot;O0&quot;&gt;&lt;div style=&quot;font-size: 10px;&quot; class=&quot;O0&quot;&gt;&lt;span style=&quot;&quot;&gt;3.1.3&lt;br&gt;Actualizar el marco normativo para la planificación, diseño y construcción de&lt;br&gt;la infraestructura educativa.&lt;/span&gt;&lt;/div&gt;&lt;/div&gt;" style="rounded=0;whiteSpace=wrap;html=1;" vertex="1" parent="1">
          <mxGeometry x="290" y="340" width="180" height="90" as="geometry" />
        </mxCell>
        <mxCell id="Ttc7ftby3Wfl5WYTJshx-5" value="&lt;div style=&quot;font-size: 10px;&quot; class=&quot;O0&quot;&gt;&lt;span style=&quot;&quot;&gt;3.1.3.1&lt;br&gt;Llevar a cabo estudios de optimización de infraestructura educativa a nivel&lt;br&gt;regional.&lt;/span&gt;&lt;/div&gt;" style="rounded=0;whiteSpace=wrap;html=1;" vertex="1" parent="1">
          <mxGeometry x="570" y="340" width="180" height="90" as="geometry" />
        </mxCell>
        <mxCell id="Ttc7ftby3Wfl5WYTJshx-6" value="&lt;div class=&quot;O0&quot;&gt;&lt;div style=&quot;font-size: 10px;&quot; class=&quot;O0&quot;&gt;&lt;span style=&quot;&quot;&gt;3.1.2.1&lt;br&gt;Revisar el marco normativo y crear mecanismos para la adquisición transferencia&lt;br&gt;y donación de predios a través de la gestión del suelo urbano y rural.&lt;/span&gt;&lt;/div&gt;&lt;/div&gt;" style="rounded=0;whiteSpace=wrap;html=1;" vertex="1" parent="1">
          <mxGeometry x="570" y="130" width="180" height="90" as="geometry" />
        </mxCell>
        <mxCell id="Ttc7ftby3Wfl5WYTJshx-7" value="" style="endArrow=classic;html=1;rounded=0;fontSize=10;exitX=1;exitY=0.5;exitDx=0;exitDy=0;entryX=0;entryY=0.5;entryDx=0;entryDy=0;" edge="1" parent="1" source="Ttc7ftby3Wfl5WYTJshx-1" target="Ttc7ftby3Wfl5WYTJshx-3">
          <mxGeometry width="50" height="50" relative="1" as="geometry">
            <mxPoint x="420" y="380" as="sourcePoint" />
            <mxPoint x="470" y="330" as="targetPoint" />
          </mxGeometry>
        </mxCell>
        <mxCell id="Ttc7ftby3Wfl5WYTJshx-8" value="" style="endArrow=classic;html=1;rounded=0;fontSize=10;exitX=1;exitY=0.5;exitDx=0;exitDy=0;entryX=0;entryY=0.5;entryDx=0;entryDy=0;" edge="1" parent="1" source="Ttc7ftby3Wfl5WYTJshx-1" target="Ttc7ftby3Wfl5WYTJshx-4">
          <mxGeometry width="50" height="50" relative="1" as="geometry">
            <mxPoint x="420" y="380" as="sourcePoint" />
            <mxPoint x="470" y="330" as="targetPoint" />
          </mxGeometry>
        </mxCell>
        <mxCell id="Ttc7ftby3Wfl5WYTJshx-10" value="" style="endArrow=classic;html=1;rounded=0;fontSize=10;exitX=1;exitY=0.5;exitDx=0;exitDy=0;entryX=0;entryY=0.5;entryDx=0;entryDy=0;" edge="1" parent="1" source="Ttc7ftby3Wfl5WYTJshx-4" target="Ttc7ftby3Wfl5WYTJshx-5">
          <mxGeometry width="50" height="50" relative="1" as="geometry">
            <mxPoint x="420" y="380" as="sourcePoint" />
            <mxPoint x="470" y="330" as="targetPoint" />
          </mxGeometry>
        </mxCell>
        <mxCell id="Ttc7ftby3Wfl5WYTJshx-11" value="" style="endArrow=classic;html=1;rounded=0;fontSize=10;exitX=1;exitY=0.5;exitDx=0;exitDy=0;entryX=0;entryY=0.5;entryDx=0;entryDy=0;" edge="1" parent="1" source="Ttc7ftby3Wfl5WYTJshx-3" target="Ttc7ftby3Wfl5WYTJshx-6">
          <mxGeometry width="50" height="50" relative="1" as="geometry">
            <mxPoint x="420" y="380" as="sourcePoint" />
            <mxPoint x="470" y="330" as="targetPoint" />
          </mxGeometry>
        </mxCell>
      </root>
    </mxGraphModel>
  </diagram>
</mxfile>
